<svg xmlns="http://www.w3.org/2000/svg" width="1792" height="1792" version="1"><path fill="#69499e" d="M1495 458q24 24 41 64 17 41 17 75v979q0 34-24 58-24 23-58 23H329q-34 0-57-23-24-24-24-58V216q0-34 24-57 23-24 57-24h762q34 0 74 17 41 17 65 41zm-377-208v320h319q-8-25-18-35l-266-266q-10-10-35-19zm326 1299V679h-353q-34 0-58-24t-24-58V244H357v1305zm-109-381v272H465v-163l164-163 108 108 326-326zm-706-163q-68 0-116-48-48-47-48-115t48-116q48-47 116-47 67 0 115 47 48 48 48 116t-48 115q-48 48-115 48z"/></svg>